<svg width="929" height="217" viewBox="0 0 929 217" fill="none" xmlns="http://www.w3.org/2000/svg">
<path d="M134.74 169.08C180.14 167.47 216 131.22 216.37 86.3697L216.23 47.8197L266.19 47.6397L266.35 90.2897C265.62 159.66 205.53 214.59 134.92 216.36C63.0904 216.17 2.15037 161.29 0.910368 91.1797L0.630362 14.5397C0.530362 6.71969 5.59037 1.61969 13.2604 1.66969L216.06 0.929688L216.23 47.7497L57.2404 48.3997C53.1404 48.4097 50.7204 50.9297 50.7304 54.9497L50.8404 86.2097C51.5304 131.67 88.2704 168.79 134.74 169.08Z" fill="#FF7D41"/>
<path d="M331.04 183.46L330.48 30.2004L383.01 30.0104C430.84 29.8404 456.69 63.5304 456.85 106.37C457.01 149.94 430.54 183.1 383.37 183.27L331.04 183.46ZM379.26 164.18C415.64 164.05 435.22 144.87 435.08 106.52C434.94 67.1104 414.1 49.0104 379.63 49.1304L352.24 49.2304L352.66 164.28L379.26 164.18Z" fill="white"/>
<path d="M476.699 39.8503C476.669 32.1803 482.869 25.9403 490.539 25.9103C498.209 25.8803 504.449 32.0703 504.479 39.7403C504.509 47.4103 498.309 53.6503 490.639 53.6803C482.969 53.7103 476.729 47.5203 476.699 39.8503ZM480.139 75.1503L501.239 75.0703L501.629 182.84L480.529 182.92L480.139 75.1503Z" fill="white"/>
<path d="M561.014 136.126C561.014 124.843 563.623 115.879 568.84 109.234C574.058 102.545 580.971 99.2002 589.578 99.2002C598.408 99.2002 605.298 102.322 610.248 108.565L610.85 100.538H622.155V171.179C622.155 180.544 619.368 187.925 613.793 193.321C608.264 198.717 600.816 201.415 591.451 201.415C586.233 201.415 581.127 200.3 576.132 198.07C571.137 195.84 567.324 192.786 564.693 188.906L571.115 181.48C576.422 188.036 582.91 191.314 590.581 191.314C596.602 191.314 601.284 189.619 604.629 186.23C608.018 182.841 609.713 178.069 609.713 171.915V165.693C604.763 171.402 598.006 174.256 589.444 174.256C580.971 174.256 574.103 170.844 568.84 164.021C563.623 157.198 561.014 147.899 561.014 136.126ZM573.456 137.531C573.456 145.692 575.128 152.114 578.473 156.796C581.818 161.434 586.5 163.753 592.521 163.753C600.325 163.753 606.056 160.208 609.713 153.117V120.071C605.922 113.159 600.236 109.703 592.655 109.703C586.634 109.703 581.929 112.044 578.54 116.727C575.151 121.409 573.456 128.344 573.456 137.531ZM654.332 172.918H641.956V70.168H654.332V172.918ZM670.921 136.059C670.921 128.968 672.304 122.591 675.069 116.927C677.878 111.264 681.758 106.893 686.708 103.816C691.703 100.739 697.389 99.2002 703.767 99.2002C713.622 99.2002 721.583 102.612 727.648 109.435C733.758 116.258 736.812 125.334 736.812 136.661V137.531C736.812 144.577 735.452 150.91 732.732 156.529C730.056 162.103 726.199 166.451 721.159 169.573C716.164 172.695 710.411 174.256 703.9 174.256C694.089 174.256 686.129 170.844 680.019 164.021C673.954 157.198 670.921 148.167 670.921 136.929V136.059ZM683.364 137.531C683.364 145.558 685.215 152.002 688.916 156.863C692.662 161.724 697.657 164.155 703.9 164.155C710.188 164.155 715.183 161.702 718.885 156.796C722.586 151.846 724.437 144.934 724.437 136.059C724.437 128.121 722.542 121.699 718.751 116.793C715.005 111.843 710.01 109.368 703.767 109.368C697.657 109.368 692.729 111.799 688.983 116.66C685.237 121.521 683.364 128.478 683.364 137.531ZM813.607 137.531C813.607 148.591 811.065 157.488 805.981 164.222C800.897 170.911 794.074 174.256 785.512 174.256C776.369 174.256 769.301 171.023 764.306 164.556L763.704 172.918H752.332V70.168H764.708V108.499C769.702 102.3 776.592 99.2002 785.378 99.2002C794.163 99.2002 801.054 102.523 806.048 109.167C811.088 115.812 813.607 124.91 813.607 136.46V137.531ZM801.232 136.126C801.232 127.697 799.604 121.186 796.349 116.593C793.093 111.999 788.41 109.703 782.301 109.703C774.14 109.703 768.275 113.493 764.708 121.075V152.381C768.498 159.963 774.407 163.753 782.435 163.753C788.366 163.753 792.982 161.457 796.282 156.863C799.582 152.27 801.232 145.357 801.232 136.126ZM873.946 172.918C873.233 171.491 872.653 168.949 872.207 165.292C866.454 171.268 859.586 174.256 851.604 174.256C844.468 174.256 838.604 172.249 834.01 168.235C829.461 164.177 827.187 159.049 827.187 152.85C827.187 145.313 830.041 139.471 835.75 135.323C841.502 131.131 849.574 129.035 859.965 129.035H872.006V123.349C872.006 119.023 870.713 115.589 868.126 113.047C865.54 110.461 861.727 109.167 856.688 109.167C852.272 109.167 848.571 110.282 845.583 112.512C842.595 114.742 841.101 117.44 841.101 120.606H828.659C828.659 116.994 829.93 113.516 832.472 110.171C835.058 106.782 838.537 104.106 842.907 102.144C847.322 100.181 852.161 99.2002 857.423 99.2002C865.763 99.2002 872.296 101.296 877.023 105.488C881.751 109.636 884.203 115.366 884.382 122.68V155.994C884.382 162.639 885.229 167.923 886.924 171.848V172.918H873.946ZM853.41 163.486C857.29 163.486 860.969 162.482 864.447 160.476C867.926 158.469 870.445 155.86 872.006 152.649V137.798H862.307C847.144 137.798 839.562 142.236 839.562 151.11C839.562 154.99 840.856 158.023 843.442 160.208C846.029 162.393 849.351 163.486 853.41 163.486ZM917.227 172.918H904.852V70.168H917.227V172.918Z" fill="white"/>
</svg>
